<svg width="22" height="16" viewBox="0 0 22 16" fill="none" xmlns="http://www.w3.org/2000/svg">
<g clip-path="url(#clip0_8357_249)">
<path d="M20.7961 2.99445C20.5614 2.11745 19.8721 1.42826 18.9951 1.1935C17.4072 0.767578 11.0368 0.767578 11.0368 0.767578C11.0368 0.767578 4.66641 0.767578 3.07842 1.1935C2.20143 1.42826 1.51224 2.11745 1.27748 2.99445C0.851563 4.58243 0.851562 7.89758 0.851562 7.89758C0.851562 7.89758 0.851563 11.2127 1.27748 12.8007C1.51224 13.6777 2.20143 14.3669 3.07842 14.6016C4.66641 15.0276 11.0368 15.0276 11.0368 15.0276C11.0368 15.0276 17.4072 15.0276 18.9951 14.6016C19.8721 14.3669 20.5614 13.6777 20.7961 12.8007C21.222 11.2127 21.222 7.89758 21.222 7.89758C21.222 7.89758 21.2203 4.58243 20.7961 2.99445Z" fill="#F2F4F0"/>
<path d="M8.99219 10.9562L14.2844 7.90096L8.99219 4.8457V10.9562Z" fill="#003434"/>
</g>
<defs>
<clipPath id="clip0_8357_249">
<rect width="20.3704" height="14.26" fill="white" transform="translate(0.851562 0.767578)"/>
</clipPath>
</defs>
</svg>
