<svg width="17" height="16" viewBox="0 0 17 16" fill="none" xmlns="http://www.w3.org/2000/svg">
<path fill-rule="evenodd" clip-rule="evenodd" d="M5.7593 0.0546875H11.6415C14.3484 0.0546875 16.5434 2.24975 16.5434 4.95656V10.8388C16.5434 13.5456 14.3484 15.7407 11.6415 15.7407H5.7593C3.05248 15.7407 0.857422 13.5456 0.857422 10.8388V4.95656C0.857422 2.24975 3.05248 0.0546875 5.7593 0.0546875ZM11.6417 14.271C13.5338 14.271 15.073 12.7318 15.073 10.8396V4.95739C15.073 3.06527 13.5338 1.52608 11.6417 1.52608H5.75941C3.86728 1.52608 2.3281 3.06527 2.3281 4.95739V10.8396C2.3281 12.7318 3.86728 14.271 5.75941 14.271H11.6417Z" fill="#F2F4F0"/>
<path fill-rule="evenodd" clip-rule="evenodd" d="M4.78125 7.8966C4.78125 5.73095 6.5371 3.9751 8.70275 3.9751C10.8684 3.9751 12.6242 5.73095 12.6242 7.8966C12.6242 10.0622 10.8684 11.8181 8.70275 11.8181C6.5371 11.8181 4.78125 10.0622 4.78125 7.8966ZM6.25204 7.89741C6.25204 9.24837 7.35202 10.3483 8.70297 10.3483C10.0539 10.3483 11.1539 9.24837 11.1539 7.89741C11.1539 6.54548 10.0539 5.44648 8.70297 5.44648C7.35202 5.44648 6.25204 6.54548 6.25204 7.89741Z" fill="#F2F4F0"/>
<circle cx="12.9151" cy="3.67977" r="0.52254" fill="#F2F4F0"/>
</svg>
