<svg width="16" height="16" viewBox="0 0 16 16" fill="none" xmlns="http://www.w3.org/2000/svg">
<path d="M-0.0859375 1.77496C-0.0859375 1.25779 0.0950726 0.831127 0.457093 0.494965C0.819113 0.158803 1.28974 -0.00927734 1.86897 -0.00927734C2.43786 -0.00927734 2.89814 0.156218 3.24982 0.487207C3.61184 0.828541 3.79285 1.27331 3.79285 1.82151C3.79285 2.318 3.61701 2.73173 3.26533 3.06272C2.90331 3.40406 2.42752 3.57472 1.83794 3.57472H1.82243C1.25354 3.57472 0.793254 3.40406 0.441578 3.06272C0.0899008 2.72139 -0.0859375 2.29214 -0.0859375 1.77496ZM0.115759 15.3507V4.9866H3.56012V15.3507H0.115759ZM5.46849 15.3507H8.91285V9.56357C8.91285 9.20155 8.95422 8.92228 9.03697 8.72575C9.18178 8.37408 9.40158 8.0767 9.69637 7.83363C9.99115 7.59056 10.3609 7.46902 10.8057 7.46902C11.9642 7.46902 12.5434 8.24995 12.5434 9.81181V15.3507H15.9878V9.40842C15.9878 7.87759 15.6257 6.71654 14.9017 5.92527C14.1777 5.13399 13.2209 4.73836 12.0314 4.73836C10.6971 4.73836 9.65758 5.31242 8.91285 6.46054V6.49157H8.89733L8.91285 6.46054V4.9866H5.46849C5.48917 5.31759 5.49952 6.34676 5.49952 8.07412C5.49952 9.80147 5.48917 12.227 5.46849 15.3507Z" fill="#F2F4F0"/>
</svg>
