<svg width="168" height="58" viewBox="0 0 168 58" fill="none" xmlns="http://www.w3.org/2000/svg">
<path d="M47.3697 17.2773C47.1841 17.2773 47.0603 17.2773 46.8747 17.2773C44.6473 17.2773 42.6674 18.0216 41.3681 18.9519L41.3063 18.8899V17.7735H36.1709V40.1015H40.5638H41.3063V23.4175C42.4818 22.5492 44.0286 21.867 45.8229 21.867C46.1941 21.867 46.6272 21.867 46.9985 21.991C49.5352 22.6112 50.4633 24.72 50.4633 26.8908V40.0394H55.5987V25.9604C55.5987 23.1074 54.7943 20.8126 53 19.3241C51.3914 18.0836 49.4733 17.3394 47.3697 17.2773Z" fill="#003434"/>
<path d="M27.218 17.7114V40.0393H32.3533V17.7114H27.218Z" fill="#003434"/>
<path d="M69.0314 17.2167C63.2155 17.2167 58.142 21.8684 58.142 28.9389C58.142 29.7452 58.2038 30.4895 58.3276 31.2337C58.3895 31.4818 58.4513 31.7919 58.5132 32.04C58.5132 32.102 58.5751 32.2261 58.5751 32.2881C58.5751 32.3501 58.6369 32.4742 58.6369 32.5362C58.6988 32.7843 58.7607 32.9704 58.8226 33.1564C60.3694 37.7461 64.4529 40.537 69.0314 40.537C69.1552 40.537 69.3408 40.537 69.4645 40.537C72.9912 40.413 76.2085 38.5523 77.8172 35.1411C78.0647 34.6449 78.2503 34.1488 78.3741 33.6526H77.8791H77.5697H73.7955C72.62 35.6373 70.3307 36.3816 68.1652 36.0094C65.6903 35.5753 64.1435 33.6526 63.7104 31.2337C63.6486 30.9236 63.5867 30.6755 63.5867 30.3654H79.364C79.4259 29.8072 79.4877 28.8769 79.4877 28.1326C79.4259 21.0001 74.3524 17.2167 69.0314 17.2167ZM63.5248 26.5821C64.2054 23.2329 66.6184 21.6823 69.0314 21.6823C71.4444 21.6823 74.1668 23.2329 74.538 26.5821H63.5248Z" fill="#003434"/>
<path d="M12.7758 17.7114C10.734 17.7114 9.00157 17.7114 7.45477 17.7114H3V49.4667H8.25911V38.9229L8.32098 38.8609C9.68216 39.7912 11.6621 40.5355 13.9513 40.5355C19.5198 40.5355 24.1602 36.0699 24.1602 29.2475C24.222 22.239 19.396 17.7114 12.7758 17.7114ZM12.8376 35.8218C11.0433 35.8218 9.43467 35.1396 8.25911 34.2092V22.301H12.652C16.6118 22.301 18.9629 25.03 18.9629 28.9374C18.9011 32.8448 16.6118 35.8218 12.8376 35.8218Z" fill="#003434"/>
<path d="M134.491 17.2164C132.263 17.2164 130.283 17.9606 128.984 18.8289L128.922 18.7669V8.53326H123.787V40.0405H128.18C129.726 40.0405 131.397 40.0405 133.377 40.0405C139.811 40.0405 144.514 35.1407 144.514 28.2563C144.514 21.6199 139.935 17.2164 134.491 17.2164ZM133.191 35.5749H128.922V23.4186C130.098 22.5503 131.644 21.868 133.439 21.868C137.151 21.868 139.378 24.783 139.378 28.5664C139.317 32.4118 137.027 35.5749 133.191 35.5749Z" fill="#003434"/>
<path d="M157.77 26.6445C154.676 25.9622 152.016 26.0242 152.016 23.9155C152.016 22.3649 153.439 21.6827 155.666 21.6827C157.77 21.6827 160.863 22.427 163.4 23.9775V18.9537C161.173 17.7133 158.203 17.1551 155.666 17.1551C150.654 17.1551 146.88 19.636 146.818 24.2876C146.818 28.3191 149.541 29.8076 153.501 30.7379C156.656 31.4822 159.378 31.3582 159.378 33.5909C159.378 35.2655 157.893 36.0098 155.542 36.0098C153.253 36.0098 150.098 35.2655 147.437 33.5289V38.6768C149.788 39.9172 152.882 40.5374 155.48 40.5374C160.368 40.5374 164.576 38.2426 164.576 33.1568C164.576 28.9393 161.73 27.5748 157.77 26.6445Z" fill="#003434"/>
<path d="M114.871 18.8263L114.809 18.8883C111.592 16.7175 108.127 17.3377 108.127 17.3377C102.064 18.2061 99.0322 23.726 98.7228 27.7575C98.4753 31.1687 99.3415 36.5646 104.972 39.5417C108.808 41.5884 112.83 40.1619 114.809 38.9214C114.871 38.9214 114.871 38.9835 114.871 38.9835V40.0999H120.007V17.7099H114.871V18.8263ZM114.871 34.3938C113.015 35.6343 111.345 36.0684 109.86 35.8824C105.219 35.3862 104.601 31.2307 104.477 30.2383C104.229 28.1296 104.415 24.2842 107.447 22.6096C111.221 20.5009 114.871 23.4159 114.871 23.4159V34.3938Z" fill="#003434"/>
<path d="M94.3268 34.7066V8.53326H89.1915V34.8926V34.9547C89.1915 39.6683 92.4707 40.0405 93.5225 40.0405H97.7916V35.5749H94.3887" fill="#003434"/>
<path d="M27.218 12.4361L30.8684 8.77679H36.0656V13.9246L32.4152 17.646V12.4361H27.218Z" fill="#003434"/>
</svg>
