<svg width="99" height="26" viewBox="0 0 99 26" fill="none" xmlns="http://www.w3.org/2000/svg">
<path d="M27.1831 5.81903C27.0693 5.81903 26.9935 5.81903 26.8798 5.81903C25.5148 5.81903 24.3015 6.27502 23.5052 6.84501L23.4673 6.80701V6.12302H20.3203V19.8028H23.0123H23.4673V9.58097C24.1877 9.04898 25.1356 8.63098 26.2352 8.63098C26.4627 8.63098 26.7281 8.63098 26.9556 8.70698C28.5101 9.08698 29.0789 10.379 29.0789 11.7089V19.7648H32.2259V11.1389C32.2259 9.39097 31.733 7.98499 30.6334 7.07301C29.6476 6.31302 28.4722 5.85703 27.1831 5.81903Z" fill="#00262C"/>
<path d="M14.8281 6.08465V19.7644H17.9751V6.08465H14.8281Z" fill="#00262C"/>
<path d="M40.4544 5.77997C36.8904 5.77997 33.7812 8.62992 33.7812 12.9619C33.7812 13.4558 33.8192 13.9118 33.895 14.3678C33.9329 14.5198 33.9708 14.7098 34.0087 14.8618C34.0087 14.8998 34.0467 14.9758 34.0467 15.0138C34.0467 15.0518 34.0846 15.1278 34.0846 15.1658C34.1225 15.3178 34.1604 15.4318 34.1983 15.5458C35.1462 18.3578 37.6487 20.0677 40.4544 20.0677C40.5303 20.0677 40.644 20.0677 40.7199 20.0677C42.8811 19.9917 44.8527 18.8518 45.8385 16.7618C45.9902 16.4578 46.1039 16.1538 46.1798 15.8498H45.8764H45.6868H43.374C42.6536 17.0658 41.2507 17.5218 39.9236 17.2938C38.407 17.0278 37.4591 15.8498 37.1937 14.3678C37.1558 14.1778 37.1179 14.0258 37.1179 13.8358H46.7864C46.8243 13.4938 46.8622 12.9239 46.8622 12.4679C46.8243 8.09793 43.7152 5.77997 40.4544 5.77997ZM37.0799 11.5179C37.497 9.46591 38.9757 8.51592 40.4544 8.51592C41.9332 8.51592 43.6015 9.46591 43.829 11.5179H37.0799Z" fill="#00262C"/>
<path d="M5.99071 6.08465C4.73949 6.08465 3.67784 6.08465 2.72995 6.08465H0V25.5403H3.22285V19.0804L3.26077 19.0424C4.09492 19.6124 5.30823 20.0684 6.71112 20.0684C10.1235 20.0684 12.9672 17.3325 12.9672 13.1525C13.0052 8.85861 10.0477 6.08465 5.99071 6.08465ZM6.02863 17.1805C4.92907 17.1805 3.94325 16.7625 3.22285 16.1925V8.89661H5.91488C8.3415 8.89661 9.7823 10.5686 9.7823 12.9625C9.74439 15.3565 8.3415 17.1805 6.02863 17.1805Z" fill="#00262C"/>
<path d="M80.5751 5.77957C79.2101 5.77957 77.9968 6.23556 77.2006 6.76755L77.1626 6.72955V0.459654H74.0156V19.7633H76.7077C77.6556 19.7633 78.6793 19.7633 79.8926 19.7633C83.8358 19.7633 86.7175 16.7614 86.7175 12.5435C86.7175 8.47753 83.9117 5.77957 80.5751 5.77957ZM79.7788 17.0274H77.1626V9.57951C77.883 9.04752 78.8309 8.62952 79.9305 8.62952C82.2055 8.62952 83.5704 10.4155 83.5704 12.7335C83.5325 15.0894 82.1296 17.0274 79.7788 17.0274Z" fill="#00262C"/>
<path d="M94.8283 11.5548C92.9325 11.1368 91.3021 11.1748 91.3021 9.88284C91.3021 8.93285 92.1742 8.51486 93.5392 8.51486C94.8283 8.51486 96.7241 8.97085 98.2787 9.92084V6.84289C96.9137 6.0829 95.0937 5.7409 93.5392 5.7409C90.468 5.7409 88.1551 7.26088 88.1172 10.1108C88.1172 12.5808 89.7855 13.4928 92.2121 14.0628C94.1458 14.5188 95.8141 14.4428 95.8141 15.8107C95.8141 16.8367 94.9041 17.2927 93.4633 17.2927C92.0604 17.2927 90.1267 16.8367 88.4963 15.7727V18.9267C89.9372 19.6867 91.8329 20.0667 93.4254 20.0667C96.4208 20.0667 98.9991 18.6607 98.9991 15.5447C98.9991 12.9608 97.2549 12.1248 94.8283 11.5548Z" fill="#00262C"/>
<path d="M68.5595 6.76564L68.5216 6.80364C66.55 5.47366 64.4267 5.85365 64.4267 5.85365C60.7109 6.38564 58.853 9.76759 58.6635 12.2376C58.5118 14.3275 59.0426 17.6335 62.493 19.4574C64.8437 20.7114 67.3083 19.8374 68.5216 19.0774C68.5595 19.0774 68.5595 19.1154 68.5595 19.1154V19.7994H71.7065V6.08165H68.5595V6.76564ZM68.5595 16.3035C67.422 17.0635 66.3983 17.3295 65.4883 17.2155C62.6446 16.9115 62.2655 14.3655 62.1896 13.7575C62.038 12.4655 62.1517 10.1096 64.0096 9.0836C66.3225 7.79162 68.5595 9.57759 68.5595 9.57759V16.3035Z" fill="#00262C"/>
<path d="M55.9595 16.4954V0.459654H52.8125V16.6094V16.6474C52.8125 19.5354 54.822 19.7633 55.4666 19.7633H58.0828V17.0274H55.9974" fill="#00262C"/>
<path d="M14.8281 2.85006L17.0652 0.608091H20.2501V3.76204L18.0131 6.04201V2.85006H14.8281Z" fill="#00262C"/>
</svg>
